<svg width="233" height="232" viewBox="0 0 233 232" fill="none" xmlns="http://www.w3.org/2000/svg">
<path fill-rule="evenodd" clip-rule="evenodd" d="M115.838 0H115.938C179.616 0 232.643 54.2696 231.66 117.265C231.421 132.604 228.092 147.714 221.898 161.705C224.834 172.221 227.733 182.841 230.666 193.595C230.68 193.644 230.695 193.698 230.711 193.756C231.467 196.442 234.962 208.857 226.061 220.512C223.313 224.117 219.762 227.03 215.695 229.022C211.644 231.006 207.19 232.025 202.682 232C198.62 231.991 195.394 231.13 193.987 230.754C193.948 230.743 193.911 230.733 193.875 230.724L160.155 221.943C146.268 227.737 131.347 230.733 116.256 230.733C44.2946 230.733 -14.4619 160.977 3.15107 88.8993C15.9344 36.4162 61.4144 0.68305 115.737 0.0012598L115.838 0ZM116.038 32.0001C76.1251 32.5439 43.5018 58.4461 34.2409 96.4771L34.2376 96.4905C21.8008 147.372 63.9539 198.733 116.255 198.733M116.038 32.0001C161.781 32.0575 200.368 71.647 199.664 116.765C199.467 129.356 196.378 141.737 190.632 152.956L187.77 158.545L189.472 164.589C192.652 175.874 195.778 187.296 198.967 198.985L157.104 188.077L151.812 190.624C140.725 195.96 128.57 198.733 116.255 198.733" fill="#4A1EA6"/>
<path d="M128.369 147.832V127.935H148.894C155.495 127.935 160.874 122.568 160.874 116C160.874 109.423 155.495 104.065 148.894 104.065H128.369V84.1678C128.369 77.4242 122.807 71.8823 116.021 71.8823C109.244 71.8823 103.681 77.4242 103.681 84.1678V104.065H83.1645C76.5547 104.065 71.168 109.423 71.168 116C71.1768 119.164 72.443 122.196 74.6895 124.432C76.936 126.669 79.9802 127.928 83.1561 127.935H103.681V147.832C103.696 151.087 105.002 154.204 107.313 156.505C109.624 158.806 112.754 160.104 116.021 160.118C122.807 160.118 128.369 154.576 128.369 147.832Z" fill="#4A1EA6"/>
</svg>
