<?xml version="1.0" encoding="UTF-8"?>
<svg id="Camada_1" xmlns="http://www.w3.org/2000/svg" version="1.1" xmlns:xlink="http://www.w3.org/1999/xlink" viewBox="0 0 1160.17 347.23">
  <!-- Generator: Adobe Illustrator 29.6.1, SVG Export Plug-In . SVG Version: 2.1.1 Build 9)  -->
  <defs>
    <style>
      .st0 {
        fill: #fff;
      }

      .st1 {
        fill: none;
      }

      .st2 {
        clip-path: url(#clippath);
      }
    </style>
    <clipPath id="clippath">
      <rect class="st1" x="25.75" y="35.75" width="1108.67" height="275.74"/>
    </clipPath>
  </defs>
  <g class="st2">
    <path class="st0" d="M734.73,306.5c-13.51,0-24.46-10.95-24.46-24.46v-119.85c0-74.6,54.77-123.77,122.09-123.77h13.77c13.51,0,24.46,10.95,24.46,24.46s-10.95,24.45-24.46,24.45h-13.77c-40.35,0-73.18,31.29-73.18,80.33v114.38c0,13.51-10.95,24.46-24.46,24.46"/>
    <path class="st0" d="M1000.17,306.93c-74.03,0-134.25-60.22-134.25-134.25,0-13.51,10.95-24.46,24.46-24.46s24.46,10.95,24.46,24.46c0,47.06,38.28,85.34,85.34,85.34s85.34-38.28,85.34-85.34-38.28-85.34-85.34-85.34c-13.51,0-24.46-10.95-24.46-24.46s10.95-24.46,24.46-24.46c74.03,0,134.26,60.23,134.26,134.26s-60.23,134.25-134.26,134.25"/>
    <path class="st0" d="M948.3,95.09c0,14.21-11.52,25.72-25.72,25.72s-25.72-11.52-25.72-25.72,11.51-25.72,25.72-25.72,25.72,11.52,25.72,25.72"/>
    <path class="st0" d="M219.97,254.65c-2.39,4.62-9,4.62-11.38,0L127.55,97.56c-15.6-29.38-39.02-49.94-66.46-58.09-12.54-3.73-26.22,2.71-30.58,15.04-4.76,13.45,2.36,25.82,16.25,31.74,14.26,6.07,25.58,13.28,37.24,33.55l82.16,157.93c20.26,38.95,75.98,38.95,96.24,0l82.16-157.93c11.66-20.27,22.98-27.47,37.24-33.55,13.89-5.92,21.01-18.29,16.25-31.74-4.36-12.33-18.04-18.76-30.58-15.04-27.44,8.15-50.86,28.71-66.46,58.09l-81.04,157.09Z"/>
    <path class="st0" d="M650.15,235.32c-8.72-10.32-24.15-11.61-34.47-2.9-19.82,16.74-41.87,27.17-78.47,25.59-36.97-1.59-67.81-21.75-80.7-52.45h104.7c60.44,0,91.51-32.18,91.51-80.05s-33.78-87.09-117.33-87.09c-74.03,0-134.26,60.22-134.26,134.25s57.31,131.23,133.57,134.26c48.42,1.92,83.79-12.84,112.56-37.14,10.32-8.72,11.62-24.15,2.9-34.47M535.38,87.34c54.85-1.55,69.04,22.09,69.04,38.78,0,19.08-10.51,30.54-43.22,30.54h-109.64c7.54-39.17,42.27-68.14,83.82-69.32"/>
  </g>
</svg>