<svg width="112" height="22" viewBox="0 0 112 22" fill="none" xmlns="http://www.w3.org/2000/svg">
<g clip-path="url(#clip0_39_772)">
<path fill-rule="evenodd" clip-rule="evenodd" d="M71.64 12.3349V14.5057C71.64 15.2414 71.0354 15.8461 70.2978 15.8461C69.9427 15.8446 69.6025 15.703 69.3513 15.4519C69.1001 15.2009 68.9582 14.8608 68.9565 14.5057V12.3349H66.7256C66.3804 12.3342 66.0496 12.1968 65.8054 11.9528C65.5612 11.7088 65.4236 11.378 65.4226 11.0328C65.4226 10.3153 66.0081 9.73068 66.7265 9.73068H68.9565V7.55988C68.9565 6.82414 69.5611 6.21952 70.2978 6.21952C71.0354 6.21952 71.64 6.82414 71.64 7.55988V9.73068H73.8709C74.5884 9.73068 75.173 10.3153 75.173 11.0328C75.173 11.7494 74.5884 12.3349 73.8709 12.3349H71.64ZM77.657 7.53985C76.5625 5.19786 74.47 3.55611 71.9168 3.03708C71.4706 2.9524 70.9334 2.89777 70.3788 2.88229C66.5617 2.94147 63.4021 5.44372 62.5106 9.11604C62.0052 11.1876 62.3977 13.4331 63.5869 15.2806C64.777 17.1291 66.661 18.4175 68.7562 18.8191C70.6374 19.1787 72.4167 18.9283 74.0721 18.0706L74.145 18.0342C74.5128 17.8703 74.8907 17.8256 75.3241 17.9058L75.4279 17.9285C76.2529 18.1452 77.0761 18.361 77.9011 18.5759C77.688 17.8001 77.4758 17.0325 77.26 16.2722L77.2409 16.1948C77.1214 15.7103 77.1948 15.1984 77.4458 14.767C78.0483 13.6643 78.3815 12.4348 78.4182 11.1788C78.4549 9.92276 78.1941 8.67585 77.657 7.53985ZM80.9815 21.3596C80.8464 21.5374 80.6717 21.6812 80.4713 21.7797C80.2709 21.8782 80.0502 21.9286 79.8269 21.9268C79.612 21.9268 79.4408 21.8813 79.3042 21.8449L77.983 21.5007L75.0346 20.7294C73.5909 21.4264 72.0084 21.7884 70.4052 21.7884C69.6914 21.7884 68.9593 21.7174 68.2272 21.5772C65.3789 21.0327 62.8257 19.2917 61.2212 16.7994C59.6186 14.3081 59.0914 11.2668 59.7771 8.45315C60.9781 3.50603 65.235 0.137832 70.3706 0.0731812H70.4244C71.1492 0.0923031 71.8339 0.162417 72.4595 0.280791C75.9142 0.98375 78.7315 3.19643 80.2066 6.35247C80.9084 7.83922 81.26 9.46707 81.2345 11.1109C81.2089 12.7548 80.8068 14.3709 80.0591 15.8351C80.4379 17.1837 80.8094 18.5486 81.1882 19.9418C81.2501 20.1658 81.4222 20.7813 80.9815 21.3596ZM108.937 12.0636C108.937 9.71247 107.241 7.76567 104.838 7.76567C102.382 7.76567 100.813 9.68697 100.813 12.0126V12.0636C100.813 14.3891 102.508 16.3359 104.888 16.3359C107.368 16.3359 108.937 14.4146 108.937 12.1145V12.0636ZM104.838 19.0148C100.762 19.0148 97.7496 15.9052 97.7496 12.1145V12.0636C97.7496 8.24645 100.787 5.08677 104.888 5.08677C108.988 5.08677 112 8.19637 112 12.0126V12.0636C112 15.8552 108.963 19.0148 104.838 19.0148ZM93.9617 18.8382C93.1258 18.8382 92.4174 18.1808 92.4174 17.3212V16.6383C91.5569 17.903 90.3167 18.9893 88.2415 18.9893C85.2293 18.9893 83.4828 16.9679 83.4828 13.8583V6.75585C83.4828 5.89627 84.1658 5.21334 85.0017 5.21334C85.8622 5.21334 86.546 5.89627 86.546 6.75494V12.9486C86.546 15.0211 87.5831 16.1839 89.4052 16.1839C91.1771 16.1839 92.4174 14.971 92.4174 12.8967V6.75585C92.4174 5.89718 93.1003 5.21425 93.9617 5.21425C94.7967 5.21425 95.5051 5.89718 95.5051 6.75585V17.3221C95.5051 18.1562 94.8222 18.8382 93.9617 18.8382ZM55.2015 5.21334C56.062 5.21334 56.7458 5.89627 56.7458 6.75494V17.3212C56.7458 18.1808 56.0629 18.8382 55.2015 18.8382C55.0017 18.8398 54.8037 18.8016 54.6188 18.726C54.4339 18.6503 54.266 18.5386 54.1246 18.3975C53.9833 18.2563 53.8715 18.0885 53.7956 17.9037C53.7197 17.7189 53.6813 17.5209 53.6826 17.3212V6.75494C53.6826 5.89627 54.341 5.21334 55.2015 5.21334ZM55.2015 3.44411C54.2144 3.44411 53.455 2.83676 53.455 1.9271V1.77595C53.455 0.865376 54.2144 0.284433 55.2015 0.284433C56.1885 0.284433 56.947 0.865376 56.947 1.77595V1.9271C56.947 2.83767 56.1885 3.44411 55.2015 3.44411ZM47.489 12.0126C47.489 9.43474 45.6678 7.74108 43.6172 7.74108C41.5165 7.74108 39.7701 9.35825 39.7701 12.0126V12.0636C39.7701 14.6423 41.542 16.3359 43.6172 16.3359C45.6669 16.3359 47.4899 14.6159 47.4899 12.0636L47.489 12.0126ZM48.9832 18.8382C48.1227 18.8382 47.4389 18.1808 47.4389 17.3212V16.4871C46.4518 17.8775 45.0596 18.9893 42.8833 18.9893C39.7446 18.9893 36.6823 16.4871 36.6823 12.0636V12.0126C36.6823 7.58902 39.6936 5.08677 42.8833 5.08677C45.0851 5.08677 46.4773 6.17399 47.4389 7.43786V1.64847C47.4389 0.788888 48.1218 0.131458 48.9577 0.131458C49.8182 0.131458 50.502 0.788888 50.502 1.64847V17.3203C50.502 18.1798 49.8191 18.8382 48.9832 18.8382ZM28.6921 7.58902C26.819 7.58902 25.5033 9.02954 25.2246 11.1038H32.0839C31.8809 9.13152 30.7172 7.58902 28.6921 7.58902ZM33.6274 13.1253H25.2501C25.5779 15.2997 27.1232 16.5126 29.0973 16.5126C30.3876 16.5126 31.401 16.0573 32.2606 15.3498C32.4882 15.1722 32.6913 15.0712 33.0455 15.0712C33.7284 15.0712 34.2602 15.6029 34.2602 16.3095C34.2602 16.6892 34.0836 17.018 33.855 17.2456C32.6403 18.3319 31.1224 19.0148 29.0472 19.0148C25.1736 19.0148 22.187 16.2085 22.187 12.0891V12.0381C22.187 8.22095 24.8959 5.08677 28.7176 5.08677C32.9699 5.08677 35.0706 8.57516 35.0706 11.6593C35.0706 12.5188 34.4123 13.1253 33.6274 13.1253ZM18.806 18.8382C17.9455 18.8382 17.2617 18.1808 17.2617 17.3212V11.1284C17.2617 9.00495 16.2746 7.86765 14.5537 7.86765C12.8828 7.86765 11.6945 9.02954 11.6945 11.1785V17.3212C11.6945 18.1808 11.0106 18.8382 10.1747 18.8382C9.31425 18.8382 8.63132 18.1808 8.63132 17.3212V11.1029C8.63132 9.02954 7.61877 7.86765 5.92238 7.86765C4.2269 7.86765 3.06319 9.13152 3.06319 11.1785V17.3212C3.06319 18.1808 2.38027 18.8382 1.51887 18.8382C1.31909 18.8399 1.12098 18.8018 0.93606 18.7262C0.75114 18.6506 0.583112 18.5389 0.44176 18.3978C0.300408 18.2566 0.188558 18.0887 0.112723 17.9039C0.036888 17.719 -0.00141661 17.521 4.00367e-05 17.3212V6.75494C4.00367e-05 5.89627 0.658382 5.21334 1.51887 5.21334C2.37936 5.21334 3.06319 5.89627 3.06319 6.75494V7.38687C3.92368 6.19949 5.08739 5.08677 7.13799 5.08677C9.06111 5.08677 10.4279 6.02193 11.1372 7.43786C12.1998 6.02193 13.6176 5.08677 15.6418 5.08677C18.5529 5.08677 20.3249 6.9325 20.3249 10.1932V17.3212C20.3249 18.1808 19.6665 18.8382 18.806 18.8382Z" fill="#4A1EA6"/>
</g>
<defs>
<clipPath id="clip0_39_772">
<rect width="112" height="21.8537" fill="white" transform="translate(0 0.0731812)"/>
</clipPath>
</defs>
</svg>
